<?xml version="1.0" encoding="UTF-8" standalone="no"?>
<svg
   xmlns:dc="http://purl.org/dc/elements/1.1/"
   xmlns:cc="http://creativecommons.org/ns#"
   xmlns:rdf="http://www.w3.org/1999/02/22-rdf-syntax-ns#"
   xmlns:svg="http://www.w3.org/2000/svg"
   xmlns="http://www.w3.org/2000/svg"
   xmlns:sodipodi="http://sodipodi.sourceforge.net/DTD/sodipodi-0.dtd"
   xmlns:inkscape="http://www.inkscape.org/namespaces/inkscape"
   inkscape:version="1.0 (4035a4f, 2020-05-01)"
   sodipodi:docname="kielip.svg"
   viewBox="0 0 1066.6667 1066.6667"
   height="1066.6667"
   width="1066.6667"
   xml:space="preserve"
   id="svg2"
   version="1.1"><metadata
     id="metadata8"><rdf:RDF><cc:Work
         rdf:about=""><dc:format>image/svg+xml</dc:format><dc:type
           rdf:resource="http://purl.org/dc/dcmitype/StillImage" /><dc:title></dc:title></cc:Work></rdf:RDF></metadata><defs
     id="defs6"><clipPath
       id="clipPath20"
       clipPathUnits="userSpaceOnUse"><path
         id="path18"
         d="M 0,800 H 800 V 0 H 0 Z" /></clipPath><clipPath
       id="clipPath28"
       clipPathUnits="userSpaceOnUse"><path
         id="path26"
         d="M 227.239,691.213 H 599.858 V 114.659 H 227.239 Z" /></clipPath><clipPath
       id="clipPath52"
       clipPathUnits="userSpaceOnUse"><path
         id="path50"
         d="M 261.663,618.402 H 560.663 V 161.47 H 261.663 Z" /></clipPath><clipPath
       id="clipPath68"
       clipPathUnits="userSpaceOnUse"><path
         id="path66"
         d="M 298.917,654.532 H 508.289 V 598.439 H 298.917 Z" /></clipPath><clipPath
       id="clipPath3878"
       clipPathUnits="userSpaceOnUse"><path
         id="path3876"
         d="M 334.322,586.22 H 464.004 V 561.45 H 334.322 Z" /></clipPath><clipPath
       id="clipPath3894"
       clipPathUnits="userSpaceOnUse"><path
         id="path3892"
         d="M 175.59,348.403 H 343.38 V 111.073 H 175.59 Z" /></clipPath><clipPath
       id="clipPath3930"
       clipPathUnits="userSpaceOnUse"><path
         id="path3928"
         d="M 0,800 H 800 V 0 H 0 Z" /></clipPath></defs><sodipodi:namedview
     inkscape:current-layer="g10"
     inkscape:window-maximized="1"
     inkscape:window-y="27"
     inkscape:window-x="0"
     inkscape:cy="574.86186"
     inkscape:cx="287.10891"
     inkscape:zoom="0.27245706"
     showgrid="false"
     id="namedview4"
     inkscape:window-height="693"
     inkscape:window-width="1280"
     inkscape:pageshadow="2"
     inkscape:pageopacity="0"
     guidetolerance="10"
     gridtolerance="10"
     objecttolerance="10"
     borderopacity="1"
     bordercolor="#666666"
     pagecolor="#ffffff"
     inkscape:document-rotation="0" /><g
     transform="matrix(1.3333333,0,0,-1.3333333,0,1066.6667)"
     inkscape:label="kielip"
     inkscape:groupmode="layer"
     id="g10"><path
       d="M 627.53267,638.44327 L 546.17773,662.48865 L 543.32688,652.84313 L 530.49358,644.28045 L 417.62814,677.63911 L 411.51181,691.80258 L 414.36265,701.4481 L 333.00867,725.49319 C 315.66342,730.61978 297.4447,720.71448 292.31783,703.36827 L 150.2989,222.86257 C 145.17203,205.51636 155.07885,187.29928 172.4241,182.17269 L 466.94811,95.122768 C 484.29432,89.995898 502.51083,99.900805 507.6377,117.24701 L 649.65663,597.75272 C 654.7835,615.09893 644.87888,633.3164 627.53267,638.44327"
       style="fill:#c8884e;fill-opacity:1;fill-rule:nonzero;stroke:none"
       id="path40" /><g
       transform="rotate(-16.465645,395.55652,408.07174)"
       id="g34"
       opacity="0.199997"
       clip-path="url(#clipPath28)"><g
         id="g32"
         transform="translate(567.1084,691.2134)"><path
           id="path30"
           style="fill:#000000;fill-opacity:1;fill-rule:nonzero;stroke:none"
           d="M 0,0 H -84.834 V -10 V -10.058 L -94.713,-21.907 H -212.406 L -222.285,-10.058 V -10 V 0 H -307.118 C -325.205,0 -339.869,-14.663 -339.869,-32.751 V -42.751 V -533.804 V -543.804 C -339.869,-561.892 -325.205,-576.554 -307.118,-576.554 H 0 C 18.088,-576.554 32.75,-561.892 32.75,-543.804 V -533.804 V -42.751 V -32.751 C 32.75,-14.663 18.088,0 0,0" /></g></g><path
       id="path60"
       style="fill:#f2f2f2;fill-opacity:1;fill-rule:nonzero;stroke:none"
       d="M 475.88848,139.69449 L 189.15051,224.44316 L 318.66349,662.63632 L 605.40145,577.88765 Z" /><path
       d="M 561.41702,596.95392 C 559.56395,590.68432 552.97964,587.10421 546.71004,588.95726 L 379.08801,638.49986 C 372.81841,640.35291 369.23831,646.93723 371.09136,653.20683 L 376.01304,669.85882 C 377.86609,676.12842 384.4504,679.70852 390.72002,677.85547 L 558.34204,628.31287 C 564.61165,626.45982 568.19174,619.8755 566.33869,613.6059 Z"
       style="fill:#9a9a9a;fill-opacity:1;fill-rule:nonzero;stroke:none;stroke-width:1.18373"
       id="path80" /><g
       transform="matrix(1.1351814,-0.3355158,0.3355158,1.1351814,-204.48807,22.711429)"
       id="g74"
       opacity="0.5"
       clip-path="url(#clipPath68)"><g
         id="g72"
         transform="translate(507.2891,621.687)"><path
           id="path70"
           style="fill:#000000;fill-opacity:1;fill-rule:nonzero;stroke:none"
           d="M 0,0 V 20.845 C 0,27.462 -5.383,32.845 -12,32.845 H -46.595 V 28.845 H -12 C -7.589,28.845 -4,25.256 -4,20.845 V 0 H -5 V -10.248 C -5,-14.107 -8.141,-17.248 -12,-17.248 H -20.033 V -18.248 H -187.338 V -17.248 H -195.372 C -199.231,-17.248 -202.372,-14.107 -202.372,-10.248 V 0 H -203.372 V 20.845 C -203.372,25.256 -199.783,28.845 -195.372,28.845 H -162.674 V 32.845 H -195.372 C -201.988,32.845 -207.372,27.462 -207.372,20.845 V 0 H -208.372 V -10.248 C -208.372,-17.416 -202.54,-23.248 -195.372,-23.248 H -187.338 V -22.248 H -20.033 V -23.248 H -12 C -4.832,-23.248 1,-17.416 1,-10.248 V 0 Z" /></g></g><path
       d="M 397.75051,654.38059 C 396.17626,649.05431 390.58207,646.01352 385.25693,647.58742 C 379.93066,649.16166 376.88954,654.75473 378.46378,660.081 C 380.03801,665.40727 385.63107,668.4484 390.95734,666.87416 C 396.28249,665.30025 399.32475,659.70686 397.75051,654.38059"
       style="fill:#666666;fill-opacity:1;fill-rule:nonzero;stroke:none;stroke-width:1.18373"
       id="path84" /><path
       d="M 558.9668,606.73129 C 557.39256,601.40502 551.79949,598.36388 546.47436,599.93779 C 541.14809,601.51203 538.10583,607.10543 539.68006,612.4317 C 541.2543,617.75797 546.8485,620.79876 552.17477,619.22453 C 557.49991,617.65062 560.54104,612.05756 558.9668,606.73129"
       style="fill:#666666;fill-opacity:1;fill-rule:nonzero;stroke:none;stroke-width:1.18373"
       id="path88" /><path
       d="M 554.9817,542.37432 L 346.82121,603.89853 C 339.31086,606.1183 335.00513,614.0354 337.22523,621.54689 L 347.65742,656.8431 C 349.87719,664.35345 357.79543,668.65885 365.30578,666.43908 L 402.42394,655.46839 L 401.08188,650.92766 L 363.96372,661.89835 C 358.95644,663.37832 353.67811,660.50832 352.19815,655.50104 L 341.76595,620.20483 C 340.28599,615.19755 343.15599,609.91922 348.16328,608.43925 L 556.32376,546.91505 C 561.33106,545.43509 566.60939,548.30509 568.08935,553.31238 L 578.52154,588.60857 C 580.0015,593.61585 577.13151,598.89419 572.12421,600.37415 L 532.85262,611.98132 L 534.19468,616.52204 L 573.46627,604.91487 C 580.97777,602.69477 585.28204,594.77687 583.06227,587.26651 L 572.63008,551.97032 C 570.40996,544.45882 562.4932,540.15422 554.9817,542.37432"
       style="fill:#c3c3c3;fill-opacity:1;fill-rule:nonzero;stroke:none;stroke-width:1.18373"
       id="path92" /><path
       d="M 382.8735,658.77766 L 412.71402,649.95795"
       style="fill:none;stroke:#4c4c4c;stroke-width:7.10236;stroke-linecap:round;stroke-linejoin:miter;stroke-miterlimit:10;stroke-dasharray:none;stroke-opacity:1"
       id="path96" /><path
       d="M 524.71622,616.85442 L 554.55673,608.03472"
       style="fill:none;stroke:#4c4c4c;stroke-width:7.10236;stroke-linecap:round;stroke-linejoin:miter;stroke-miterlimit:10;stroke-dasharray:none;stroke-opacity:1"
       id="path100" /><path
       d="M 346.48625,602.76318 L 355.60517,600.06798 L 357.61826,606.87907 L 348.49934,609.57427 C 344.11755,610.86936 341.6066,615.48735 342.90169,619.86915 L 346.34005,631.50249 L 339.52897,633.51558 L 336.0906,621.88224 C 333.68563,613.74526 338.34927,605.16816 346.48625,602.76318"
       style="fill:#4c4c4c;fill-opacity:1;fill-rule:nonzero;stroke:none;stroke-width:1.18373"
       id="path104" /><path
       d="M 577.20344,563.26755 L 570.39236,565.28064 L 566.95399,553.6473 C 565.65923,549.26664 561.03978,546.75489 556.65911,548.04964 L 547.5402,550.74484 L 545.5271,543.93375 L 554.64601,541.23855 C 562.78299,538.83357 571.36011,543.49723 573.76508,551.63421 Z"
       style="fill:#4c4c4c;fill-opacity:1;fill-rule:nonzero;stroke:none;stroke-width:1.18373"
       id="path108" /><path
       id="path110"
       style="fill:#c1c8cc;fill-opacity:1;fill-rule:nonzero;stroke:none"
       d="M 341.17268,571.06182 L 566.48255,504.46892 L 567.39183,507.54536 L 342.08196,574.13826 Z" /><path
       id="path114"
       style="fill:#c1c8cc;fill-opacity:1;fill-rule:nonzero;stroke:none"
       d="M 336.89727,556.59642 L 562.20714,490.00352 L 563.11642,493.07996 L 337.80654,559.67286 Z" /><path
       id="path116"
       style="fill:#c1c8cc;fill-opacity:1;fill-rule:nonzero;stroke:none"
       d="M 334.75956,549.36372 L 473.46881,508.36662 L 474.37809,511.44306 L 335.66884,552.44016 Z" /><path
       id="path118"
       style="fill:#818181;fill-opacity:1;fill-rule:nonzero;stroke:none"
       d="M 307.88082,559.72412 L 328.2114,553.71518 L 334.22034,574.04577 L 313.88975,580.05471 Z M 329.77569,550.83676 L 305.0021,558.15887 L 312.32422,582.93246 L 337.0978,575.61034 Z" /><path
       id="path536"
       style="fill:#818181;fill-opacity:1;fill-rule:nonzero;stroke:none"
       d="M 297.06558,523.13194 L 317.39617,517.12301 L 323.4051,537.45359 L 303.07452,543.46253 Z M 318.96074,514.24554 L 294.18715,521.56765 L 301.50927,546.34124 L 326.28285,539.01912 Z" /><path
       d="M 304.76581,537.22005 L 304.81053,537.24437 C 304.78337,537.23362 304.76598,537.22417 304.76581,537.22005"
       style="fill:#ff3b56;fill-opacity:1;fill-rule:nonzero;stroke:none"
       id="path788" /><path
       d="M 305.70911,538.39955 L 305.72683,538.39953 L 305.86541,538.47327 Z"
       style="fill:#ff3b56;fill-opacity:1;fill-rule:nonzero;stroke:none"
       id="path792" /><path
       d="M 305.51313,536.12909 C 305.58029,536.17285 305.6527,536.22027 305.72607,536.26741 C 305.5533,536.16622 305.46078,536.18836 305.51313,536.12909"
       style="fill:#ff3b56;fill-opacity:1;fill-rule:nonzero;stroke:none"
       id="path828" /><path
       d="M 305.72802,536.2687 L 305.72553,536.26735 Z"
       style="fill:#ff3b56;fill-opacity:1;fill-rule:nonzero;stroke:none"
       id="path848" /><path
       d="M 307.70571,536.32265 C 307.69939,536.32244 307.68782,536.31856 307.68331,536.32093 C 307.66489,536.30448 307.64828,536.29062 307.63348,536.27935 L 307.71513,536.3157 Z"
       style="fill:#ff3b56;fill-opacity:1;fill-rule:nonzero;stroke:none"
       id="path856" /><path
       id="path946"
       style="fill:#c1c8cc;fill-opacity:1;fill-rule:nonzero;stroke:none"
       d="M 319.54221,497.87747 L 544.85209,431.28457 L 545.76136,434.36101 L 320.45149,500.95391 Z" /><path
       id="path950"
       style="fill:#c1c8cc;fill-opacity:1;fill-rule:nonzero;stroke:none"
       d="M 315.26708,483.41303 L 540.57695,416.82013 L 541.48623,419.89657 L 316.17636,486.48946 Z" /><path
       id="path952"
       style="fill:#c1c8cc;fill-opacity:1;fill-rule:nonzero;stroke:none"
       d="M 313.12937,476.18032 L 451.83863,435.18322 L 452.7479,438.25966 L 314.03865,479.25676 Z" /><path
       id="path954"
       style="fill:#818181;fill-opacity:1;fill-rule:nonzero;stroke:none"
       d="M 286.25035,486.53977 L 306.58093,480.53083 L 312.58987,500.86142 L 292.25928,506.87035 Z M 308.1455,477.65336 L 283.37192,484.97548 L 290.69403,509.74906 L 315.46762,502.42695 Z" /><path
       id="path1364"
       style="fill:#c1c8cc;fill-opacity:1;fill-rule:nonzero;stroke:none"
       d="M 308.72726,461.28625 L 534.03713,394.69335 L 534.94613,397.76883 L 309.63625,464.36173 Z" /><path
       id="path1366"
       style="fill:#c1c8cc;fill-opacity:1;fill-rule:nonzero;stroke:none"
       d="M 306.58927,454.05259 L 531.89914,387.45969 L 532.8087,390.53709 L 307.49883,457.12999 Z" /><path
       id="path1368"
       style="fill:#c1c8cc;fill-opacity:1;fill-rule:nonzero;stroke:none"
       d="M 304.45185,446.82085 L 529.76172,380.22795 L 530.671,383.30439 L 305.36112,449.89729 Z" /><path
       id="path1372"
       style="fill:#818181;fill-opacity:1;fill-rule:nonzero;stroke:none"
       d="M 275.43539,449.94855 L 295.76598,443.93961 L 301.77492,464.2702 L 281.44433,470.27914 Z M 297.33027,441.06119 L 272.55668,448.3833 L 279.8788,473.15689 L 304.65238,465.83477 Z" /><path
       id="path1782"
       style="fill:#c1c8cc;fill-opacity:1;fill-rule:nonzero;stroke:none"
       d="M 297.91231,424.69504 L 523.22218,358.10214 L 524.13118,361.17762 L 298.8213,427.77052 Z" /><path
       id="path1784"
       style="fill:#c1c8cc;fill-opacity:1;fill-rule:nonzero;stroke:none"
       d="M 295.77432,417.46137 L 521.08419,350.86848 L 521.99375,353.94587 L 296.68388,420.53877 Z" /><path
       id="path1788"
       style="fill:#c1c8cc;fill-opacity:1;fill-rule:nonzero;stroke:none"
       d="M 291.49891,402.99597 L 430.20816,361.99887 L 431.11772,365.07627 L 292.40847,406.07337 Z" /><path
       id="path1790"
       style="fill:#818181;fill-opacity:1;fill-rule:nonzero;stroke:none"
       d="M 264.61988,413.35542 L 284.95046,407.34648 L 290.95968,427.67802 L 270.6291,433.68696 Z M 286.51503,404.46901 L 261.74145,411.79113 L 269.06385,436.56567 L 293.83743,429.24356 Z" /><path
       id="path2200"
       style="fill:#c1c8cc;fill-opacity:1;fill-rule:nonzero;stroke:none"
       d="M 287.09736,388.10382 L 512.40723,321.51092 L 513.31623,324.5864 L 288.00635,391.1793 Z" /><path
       id="path2208"
       style="fill:#818181;fill-opacity:1;fill-rule:nonzero;stroke:none"
       d="M 253.80493,376.7642 L 274.13551,370.75526 L 280.14473,391.08681 L 259.81415,397.09574 Z M 275.70008,367.87779 L 250.9265,375.19991 L 258.2489,399.97445 L 283.02248,392.65234 Z" /><path
       id="path2618"
       style="fill:#c1c8cc;fill-opacity:1;fill-rule:nonzero;stroke:none"
       d="M 276.28212,351.51164 L 501.592,284.91874 L 502.50099,287.99422 L 277.19112,354.58712 Z" /><path
       id="path2622"
       style="fill:#c1c8cc;fill-opacity:1;fill-rule:nonzero;stroke:none"
       d="M 272.00671,337.04624 L 497.31658,270.45334 L 498.22558,273.52882 L 272.9157,340.12172 Z" /><path
       id="path2624"
       style="fill:#c1c8cc;fill-opacity:1;fill-rule:nonzero;stroke:none"
       d="M 269.86872,329.81258 L 408.57797,288.81548 L 409.48753,291.89288 L 270.77828,332.88998 Z" /><path
       id="path2626"
       style="fill:#818181;fill-opacity:1;fill-rule:nonzero;stroke:none"
       d="M 242.98997,340.17298 L 263.32056,334.16405 L 269.32978,354.49559 L 248.99919,360.50453 Z M 264.88485,331.28562 L 240.11126,338.60773 L 247.43366,363.38228 L 272.20725,356.06016 Z" /><path
       id="path3036"
       style="fill:#c1c8cc;fill-opacity:1;fill-rule:nonzero;stroke:none"
       d="M 265.46717,314.92042 L 490.77705,248.32753 L 491.68604,251.40301 L 266.37617,317.99591 Z" /><path
       id="path3040"
       style="fill:#c1c8cc;fill-opacity:1;fill-rule:nonzero;stroke:none"
       d="M 261.19176,300.45502 L 486.50163,233.86212 L 487.41063,236.9376 L 262.10075,303.5305 Z" /><path
       id="path3042"
       style="fill:#c1c8cc;fill-opacity:1;fill-rule:nonzero;stroke:none"
       d="M 259.05377,293.22136 L 397.76302,252.22426 L 398.67258,255.30166 L 259.96333,296.29876 Z" /><path
       id="path3044"
       style="fill:#818181;fill-opacity:1;fill-rule:nonzero;stroke:none"
       d="M 232.17502,303.58176 L 252.50561,297.57283 L 258.51483,317.90437 L 238.18424,323.91331 Z M 254.0699,294.6944 L 229.29631,302.01652 L 236.61871,326.79106 L 261.3923,319.46895 Z" /><path
       id="path3454"
       style="fill:#c1c8cc;fill-opacity:1;fill-rule:nonzero;stroke:none"
       d="M 254.65222,278.32921 L 479.9621,211.73631 L 480.87109,214.81179 L 255.56122,281.40469 Z" /><path
       id="path3456"
       style="fill:#c1c8cc;fill-opacity:1;fill-rule:nonzero;stroke:none"
       d="M 252.51423,271.09555 L 477.8241,204.50265 L 478.73366,207.58005 L 253.42379,274.17295 Z" /><path
       id="path3462"
       style="fill:#818181;fill-opacity:1;fill-rule:nonzero;stroke:none"
       d="M 221.35979,266.98959 L 241.69037,260.98065 L 247.69959,281.3122 L 227.36901,287.32113 Z M 243.25495,258.10318 L 218.48136,265.4253 L 225.80376,290.19984 L 250.57735,282.87773 Z" /><g
       transform="rotate(-16.465645,395.55652,408.07174)"
       id="g3884"
       opacity="0.600006"
       clip-path="url(#clipPath3878)"><text
         transform="matrix(0.64601388,0.19093676,0.42075946,-1.4235941,0,0)"
         id="text7647"
         y="-309.69269"
         x="401.63998"
         style="font-size:31.9208px;line-height:1.25;font-family:sans-serif;letter-spacing:0px;word-spacing:0px;stroke-width:2.99257;fill:#000000;fill-opacity:1;"
         xml:space="preserve"><tspan
           style="fill:#000000;fill-opacity:1;stroke:none;stroke-width:2.99257;"
           y="-309.69269"
           x="401.63998"
           id="tspan7645"
           sodipodi:role="line">fdsa</tspan></text><text
         transform="matrix(0.95898986,0.28344038,0.28344038,-0.95898986,0,0)"
         id="text7651"
         y="-561.72394"
         x="294.90683"
         style="font-size:8.00003px;line-height:1.25;font-family:sans-serif;letter-spacing:0px;word-spacing:0px;stroke-width:0.75"
         xml:space="preserve"><tspan
           style="stroke-width:0.75"
           y="-561.72394"
           x="294.90683"
           id="tspan7649"
           sodipodi:role="line" /></text></g><g
       transform="matrix(1.3551658,0.38012707,-0.38012707,1.3551658,124.65382,-74.364719)"
       id="g7675"><g
         id="g7659"
         transform="matrix(1.3564647,0,0,1.3564647,-55.503453,-146.98029)"><path
           d="M 160.79748,411.94514 C 156.8975,410.64315 154.79106,406.43044 156.08797,402.53092 L 232.99013,171.77126 C 233.45283,170.36963 251.76206,138.97454 251.76206,138.97454 C 251.76206,138.97454 247.57598,175.07242 247.1125,176.47845 L 170.20949,407.23524 C 168.91162,411.13504 164.69603,413.24233 160.79748,411.94514"
           style="fill:#fd1e25;fill-opacity:1;fill-rule:nonzero;stroke:none"
           id="path3906" /><g
           transform="rotate(-16.465645,395.55652,408.07174)"
           id="g3900"
           opacity="0.199997"
           clip-path="url(#clipPath3894)"><g
             id="g3898"
             transform="translate(189.1362,345.2178)"><path
               id="path3896"
               style="fill:#000000;fill-opacity:1;fill-rule:nonzero;stroke:none"
               d="M 0,0 C -2.35,3.371 -6.988,4.197 -10.361,1.849 C -13.732,-0.506 -14.559,-5.143 -12.208,-8.516 L -4.871,-19.034 L 7.043,-36.115 L 126.945,-208.014 C 127.561,-208.9 141.867,-222.457 149.516,-229.684 C 151.916,-231.951 153.656,-233.592 154.118,-234.027 C 154.193,-234.098 154.244,-234.145 154.244,-234.145 C 154.244,-234.145 151.571,-227.869 148.47,-220.656 C 144.414,-211.223 139.632,-200.186 139.154,-199.496 Z" /></g></g><path
           d="M 160.79748,411.94514 C 156.8975,410.64315 154.79106,406.43044 156.08797,402.53092 L 160.14324,390.36246 L 174.26313,395.0683 L 170.20949,407.23524 C 168.91162,411.13504 164.69603,413.24233 160.79748,411.94514"
           style="fill:#d86666;fill-opacity:1;fill-rule:nonzero;stroke:none"
           id="path3918" /><path
           d="M 166.72752,370.60507 L 180.84876,375.30843 L 174.26345,395.06833 L 160.14356,390.36248 Z"
           style="fill:#cbbd65;fill-opacity:1;fill-rule:nonzero;stroke:none"
           id="path3922" /></g><g
         id="g7663"
         transform="translate(34.240084,-97.440862)"><path
           d="M 247.1123,176.47883 L 232.98965,171.77068 C 233.45359,170.36972 251.76281,138.97463 251.76281,138.97463 C 251.76281,138.97463 247.57674,175.07251 247.1123,176.47883"
           style="fill:#f2d89b;fill-opacity:1;fill-rule:nonzero;stroke:none"
           id="path3910" /><path
           d="M 249.40438,158.90329 L 241.6924,156.33588 C 246.60134,147.82131 251.7625,138.97462 251.7625,138.97462 C 251.7625,138.97462 250.58397,149.14891 249.40438,158.90329"
           style="fill:#fd1e25;fill-opacity:1;fill-rule:nonzero;stroke:none"
           id="path3914" /></g></g></g></svg>
